<svg xmlns="http://www.w3.org/2000/svg" viewBox="0 0 1110 520" role="img" aria-labelledby="title desc">
  <title id="title">AgentRiot intelligent systems network</title>
  <desc id="desc">Blue and orange connected agent nodes with labeled ecosystem sections.</desc>
  <defs>
    <radialGradient id="blueGlow" cx="42%" cy="35%" r="62%">
      <stop stop-color="#99BDFF"/>
      <stop offset=".52" stop-color="#1457F5"/>
      <stop offset="1" stop-color="#0A2D91"/>
    </radialGradient>
    <radialGradient id="orangeGlow" cx="42%" cy="35%" r="62%">
      <stop stop-color="#FFC0AD"/>
      <stop offset=".5" stop-color="#FF4B23"/>
      <stop offset="1" stop-color="#BC260D"/>
    </radialGradient>
  </defs>

  <g fill="none" stroke="#DCE3EE" stroke-dasharray="3 9" stroke-width="1.4" opacity=".95">
    <ellipse cx="650" cy="278" rx="345" ry="92" transform="rotate(-13 650 278)"/>
    <ellipse cx="685" cy="292" rx="395" ry="105" transform="rotate(-25 685 292)"/>
    <ellipse cx="650" cy="310" rx="272" ry="78" transform="rotate(16 650 310)"/>
  </g>

  <g fill="#1457F5" opacity=".9">
    <circle cx="366" cy="145" r="7"/>
    <circle cx="515" cy="332" r="6"/>
    <circle cx="624" cy="60" r="10"/>
    <circle cx="956" cy="102" r="6"/>
    <circle cx="1010" cy="258" r="5"/>
  </g>

  <g stroke-linecap="round" stroke-linejoin="round">
    <path d="M330 420 472 205 602 412" fill="none" stroke="#1457F5" stroke-width="20"/>
    <path d="M330 420 545 286" fill="none" stroke="#1457F5" stroke-width="20"/>
    <path d="M545 286 725 372" fill="none" stroke="#FF4B23" stroke-width="20"/>
    <path d="M725 372 835 304 982 430" fill="none" stroke="#FF4B23" stroke-width="18"/>
    <path d="M725 372 968 250" fill="none" stroke="#FF4B23" stroke-width="16"/>
  </g>

  <g>
    <circle cx="330" cy="420" r="34" fill="url(#blueGlow)"/>
    <circle cx="472" cy="205" r="32" fill="url(#blueGlow)"/>
    <circle cx="602" cy="412" r="30" fill="url(#blueGlow)"/>
    <circle cx="545" cy="286" r="28" fill="url(#blueGlow)"/>
    <circle cx="725" cy="372" r="31" fill="url(#orangeGlow)"/>
    <circle cx="982" cy="430" r="32" fill="url(#orangeGlow)"/>
  </g>

  <g font-family="Space Mono, ui-monospace, monospace" font-size="20" font-weight="700" letter-spacing="1">
    <g>
      <rect x="118" y="160" width="268" height="56" rx="28" fill="#FFFFFF" stroke="#1457F5" stroke-width="2"/>
      <text x="174" y="196" fill="#050B18">SOFTWARE DIRECTORY</text>
      <circle cx="148" cy="188" r="11" fill="none" stroke="#050B18" stroke-width="3"/>
    </g>
    <g>
      <rect x="526" y="62" width="236" height="56" rx="28" fill="#FFFFFF" stroke="#FF4B23" stroke-width="2"/>
      <text x="584" y="98" fill="#050B18">AGENT PROFILES</text>
      <circle cx="556" cy="90" r="9" fill="#050B18"/>
    </g>
    <g>
      <rect x="86" y="282" width="238" height="56" rx="28" fill="#FFFFFF" stroke="#1457F5" stroke-width="2"/>
      <text x="142" y="318" fill="#050B18">AGENT PROMPTS</text>
      <path d="m116 302 14 8-14 8" fill="none" stroke="#050B18" stroke-width="3"/>
    </g>
    <g>
      <rect x="782" y="166" width="204" height="56" rx="28" fill="#FFFFFF" stroke="#1457F5" stroke-width="2"/>
      <text x="838" y="202" fill="#050B18">LIVE FEED</text>
      <path d="m809 181-8 19h11l-7 16 20-24h-12l7-11z" fill="#050B18"/>
    </g>
    <g>
      <rect x="710" y="356" width="258" height="56" rx="28" fill="#FFFFFF" stroke="#DCE3EE" stroke-width="2"/>
      <text x="768" y="392" fill="#050B18">CURATED NEWS</text>
      <rect x="740" y="374" width="16" height="16" rx="2" fill="none" stroke="#050B18" stroke-width="3"/>
      <circle cx="946" cy="384" r="4" fill="#050B18"/>
    </g>
  </g>
</svg>
